{"title":"Jaakiekon MM 2011 - Finaali - SWE-FIN","uid":6816141,"size":8442181632,"categoryP":"video","categoryS":"tv_shows","magnet":"?xt=urn:btih:f869fd77ea08be0b8ad19cdc50b03319bda84a46&amp;dn=Jaakiekon+MM+2011+-+Finaali+-+SWE-FIN&amp;tr=udp%3A%2F%2Ftracker.openbittorrent.com%3A80&amp;tr=udp%3A%2F%2Fopen.demonii.com%3A1337&amp;tr=udp%3A%2F%2Ftracker.coppersurfer.tk%3A6969&amp;tr=udp%3A%2F%2Fexodus.desync.com%3A6969","seeders":0,"leechers":0,"uploader":"tospeed1980","files":1,"time":1321215372,"description":"General\nID                                       : 4097 (0x1001)\nComplete name                            : Jaakiekon MM 2011 - Finaali - SWE-FIN\nFormat                                   : MPEG-TS\nFile size                                : 7.86 GiB\nDuration                                 : 3h 48mn\nOverall bit rate                         : 4 918 Kbps\nNetwork name                             : Digita Finland\n\nVideo\nID                                       : 513 (0x201)\nMenu ID                                  : 33 (0x21)\nFormat                                   : MPEG Video\nFormat version                           : Version 2\nFormat profile                           : Main@Main\nFormat settings, BVOP                    : Yes\nFormat settings, Matrix                  : Custom\nFormat settings, GOP                     : M=3, N=12\nCodec ID                                 : 2\nDuration                                 : 3h 48mn\nBit rate mode                            : Variable\nBit rate                                 : 4 449 Kbps\nMaximum bit rate                         : 8 400 Kbps\nWidth                                    : 720 pixels\nHeight                                   : 576 pixels\nDisplay aspect ratio                     : 16:9\nFrame rate                               : 25.000 fps\nStandard                                 : PAL\nColor space                              : YUV\nChroma subsampling                       : 4:2:0\nBit depth                                : 8 bits\nScan type                                : Interlaced\nScan order                               : Top Field First\nCompression mode                         : Lossy\nBits/(Pixel*Frame)                       : 0.429\nStream size                              : 7.11 GiB (90%)\n\nAudio\nID                                       : 660 (0x294)\nMenu ID                                  : 33 (0x21)\nFormat                                   : MPEG Audio\nFormat version                           : Version 1\nFormat profile                           : Layer 2\nCodec ID                                 : 4\nDuration                                 : 3h 48mn\nBit rate mode                            : Constant\nBit rate                                 : 224 Kbps\nMaximum bit rate                         : 252 Kbps\nChannel(s)                               : 2 channels\nSampling rate                            : 48.0 KHz\nCompression mode                         : Lossy\nDelay relative to video                  : -257ms\nStream size                              : 367 MiB (5%)\nLanguage                                 : Finnish","torrent":{"xt":"urn:btih:f869fd77ea08be0b8ad19cdc50b03319bda84a46","amp;dn":"Jaakiekon+MM+2011+-+Finaali+-+SWE-FIN","amp;tr":["udp%3A%2F%2Ftracker.openbittorrent.com%3A80","udp%3A%2F%2Fopen.demonii.com%3A1337","udp%3A%2F%2Ftracker.coppersurfer.tk%3A6969","udp%3A%2F%2Fexodus.desync.com%3A6969"],"infoHash":"f869fd77ea08be0b8ad19cdc50b03319bda84a46","infoHashBuffer":{"type":"Buffer","data":[248,105,253,119,234,8,190,11,138,209,156,220,80,176,51,25,189,168,74,70]},"announce":[],"urlList":[]}}